<?xml version="1.0" standalone="no"?>
<!DOCTYPE svg PUBLIC "-//W3C//DTD SVG 20010904//EN"
 "http://www.w3.org/TR/2001/REC-SVG-20010904/DTD/svg10.dtd">
<svg version="1.0" xmlns="http://www.w3.org/2000/svg"
 width="32.000000pt" height="32.000000pt" viewBox="0 0 32.000000 32.000000"
 preserveAspectRatio="xMidYMid meet">

<g transform="translate(0.000000,32.000000) scale(0.100000,-0.100000)"
fill="#000000" stroke="none">
<path d="M0 160 l0 -160 160 0 160 0 0 160 0 160 -160 0 -160 0 0 -160z m170
90 c8 13 10 13 10 -1 0 -9 10 -19 21 -22 17 -5 20 -11 17 -32 -3 -14 -1 -28 3
-31 19 -11 9 -44 -16 -50 -14 -3 -25 -14 -25 -23 -1 -13 -3 -12 -12 4 -11 19
-11 19 -19 0 -7 -17 -8 -18 -8 -2 -1 11 -9 17 -23 18 -13 0 -17 3 -10 6 16 6
16 100 0 106 -7 3 -3 6 10 6 14 1 22 7 22 19 0 14 2 15 10 2 9 -13 11 -13 20
0z"/>
<path d="M150 201 c0 -15 6 -21 21 -21 14 0 19 5 17 17 -5 26 -38 29 -38 4z"/>
<path d="M150 140 c0 -21 8 -24 34 -14 25 10 19 34 -9 34 -18 0 -25 -5 -25
-20z"/>
</g>
</svg>
